<svg xmlns="http://www.w3.org/2000/svg" xmlns:xlink="http://www.w3.org/1999/xlink" viewBox="0 0 937.03 432.425"><defs><style>.a{fill:url(#a);}</style><linearGradient id="a" x1="0.7" y1="0.078" x2="0.177" y2="0.797" gradientUnits="objectBoundingBox"><stop offset="0" stop-color="#af0037"/><stop offset="1" stop-color="#b10d25"/></linearGradient></defs><path class="a" d="M31.173,0s-23.6,94.112,5.5,192.54c13.633,46.113,37.933,97.255,74.265,136.611,25.345,27.455,59.475,52.491,90.769,69.681,19.832,10.894,42.667,18.6,68.764,24.755,43.838,10.34,96.326,12.834,154.949-4.584,24.667-7.329,39.953-18.693,68.764-33.007,41.385-20.56,78.851-79.195,119.4-131.392,30.1-38.75,65.385-71.613,86.89-95.071C750.958,104.469,959.172,13.4,959.172,13.4V-.705Z" transform="translate(-22.142 0.705)"/></svg>